{
	"asset":{
		"generator":"Khronos glTF Blender I/O v4.3.47",
		"version":"2.0"
	},
	"scene":0,
	"scenes":[
		{
			"name":"Scene",
			"nodes":[
				0
			]
		}
	],
	"nodes":[
		{
			"mesh":0,
			"name":"Mesh_0"
		}
	],
	"materials":[
		{
			"name":"Material_0",
			"pbrMetallicRoughness":{
				"baseColorTexture":{
					"index":0
				},
				"metallicFactor":0,
				"roughnessFactor":0.5
			}
		}
	],
	"meshes":[
		{
			"name":"Mesh_0",
			"primitives":[
				{
					"attributes":{
						"POSITION":0,
						"NORMAL":1,
						"TEXCOORD_0":2
					},
					"indices":3,
					"material":0
				}
			]
		}
	],
	"textures":[
		{
			"sampler":0,
			"source":0
		}
	],
	"images":[
		{
			"mimeType":"image/jpeg",
			"name":"Image_0",
			"uri":"Image_0.jpg"
		}
	],
	"accessors":[
		{
			"bufferView":0,
			"componentType":5126,
			"count":62383,
			"max":[
				0.10535578429698944,
				0.09283963590860367,
				0.1596425175666809
			],
			"min":[
				-0.11596111953258514,
				-0.132144495844841,
				0.03223789483308792
			],
			"type":"VEC3"
		},
		{
			"bufferView":1,
			"componentType":5126,
			"count":62383,
			"type":"VEC3"
		},
		{
			"bufferView":2,
			"componentType":5126,
			"count":62383,
			"type":"VEC2"
		},
		{
			"bufferView":3,
			"componentType":5123,
			"count":300000,
			"type":"SCALAR"
		}
	],
	"bufferViews":[
		{
			"buffer":0,
			"byteLength":748596,
			"byteOffset":0,
			"target":34962
		},
		{
			"buffer":0,
			"byteLength":748596,
			"byteOffset":748596,
			"target":34962
		},
		{
			"buffer":0,
			"byteLength":499064,
			"byteOffset":1497192,
			"target":34962
		},
		{
			"buffer":0,
			"byteLength":600000,
			"byteOffset":1996256,
			"target":34963
		}
	],
	"samplers":[
		{
			"magFilter":9729,
			"minFilter":9987,
			"wrapS":33071,
			"wrapT":33071
		}
	],
	"buffers":[
		{
			"byteLength":2596256,
			"uri":"mask-gltf-2.0_separated-valid.bin"
		}
	]
}
