{
	"asset":{
		"generator":"Khronos glTF Blender I/O v4.3.47",
		"version":"2.0"
	},
	"extensionsUsed":[
		"KHR_materials_specular"
	],
	"scene":0,
	"scenes":[
		{
			"name":"Scene",
			"nodes":[
				10
			]
		}
	],
	"nodes":[
		{
			"mesh":0,
			"name":"defaultMaterial"
		},
		{
			"mesh":1,
			"name":"defaultMaterial.001"
		},
		{
			"mesh":2,
			"name":"defaultMaterial.002"
		},
		{
			"mesh":3,
			"name":"defaultMaterial.003"
		},
		{
			"mesh":4,
			"name":"defaultMaterial.004"
		},
		{
			"mesh":5,
			"name":"defaultMaterial.005"
		},
		{
			"mesh":6,
			"name":"defaultMaterial.006"
		},
		{
			"mesh":7,
			"name":"defaultMaterial.007"
		},
		{
			"children":[
				0,
				1,
				2,
				3,
				4,
				5,
				6,
				7
			],
			"name":"PE_10_master_complete_Model_16",
			"rotation":[
				0.70710688829422,
				0,
				0,
				0.7071066498756409
			]
		},
		{
			"children":[
				8
			],
			"name":"Collada visual scene group",
			"rotation":[
				0.70710688829422,
				0,
				0,
				0.7071066498756409
			]
		},
		{
			"children":[
				9
			],
			"name":"Sketchfab_model",
			"rotation":[
				-0.70710688829422,
				0,
				0,
				0.7071066498756409
			]
		}
	],
	"materials":[
		{
			"doubleSided":true,
			"extensions":{
				"KHR_materials_specular":{
					"specularFactor":0.5063644051551819
				}
			},
			"name":"PE_10_master_complete_Model_16_u0_v0",
			"normalTexture":{
				"index":0
			},
			"pbrMetallicRoughness":{
				"baseColorTexture":{
					"index":1
				},
				"metallicFactor":0.7313308119773865,
				"metallicRoughnessTexture":{
					"index":2
				},
				"roughnessFactor":0.8468540906906128
			}
		}
	],
	"meshes":[
		{
			"name":"defaultMaterial",
			"primitives":[
				{
					"attributes":{
						"POSITION":0,
						"NORMAL":1,
						"TEXCOORD_0":2
					},
					"indices":3,
					"material":0
				}
			]
		},
		{
			"name":"defaultMaterial.001",
			"primitives":[
				{
					"attributes":{
						"POSITION":4,
						"NORMAL":5,
						"TEXCOORD_0":6
					},
					"indices":7,
					"material":0
				}
			]
		},
		{
			"name":"defaultMaterial.002",
			"primitives":[
				{
					"attributes":{
						"POSITION":8,
						"NORMAL":9,
						"TEXCOORD_0":10
					},
					"indices":11,
					"material":0
				}
			]
		},
		{
			"name":"defaultMaterial.003",
			"primitives":[
				{
					"attributes":{
						"POSITION":12,
						"NORMAL":13,
						"TEXCOORD_0":14
					},
					"indices":15,
					"material":0
				}
			]
		},
		{
			"name":"defaultMaterial.004",
			"primitives":[
				{
					"attributes":{
						"POSITION":16,
						"NORMAL":17,
						"TEXCOORD_0":18
					},
					"indices":19,
					"material":0
				}
			]
		},
		{
			"name":"defaultMaterial.005",
			"primitives":[
				{
					"attributes":{
						"POSITION":20,
						"NORMAL":21,
						"TEXCOORD_0":22
					},
					"indices":23,
					"material":0
				}
			]
		},
		{
			"name":"defaultMaterial.006",
			"primitives":[
				{
					"attributes":{
						"POSITION":24,
						"NORMAL":25,
						"TEXCOORD_0":26
					},
					"indices":27,
					"material":0
				}
			]
		},
		{
			"name":"defaultMaterial.007",
			"primitives":[
				{
					"attributes":{
						"POSITION":28,
						"NORMAL":29,
						"TEXCOORD_0":30
					},
					"indices":31,
					"material":0
				}
			]
		}
	],
	"textures":[
		{
			"sampler":0,
			"source":0
		},
		{
			"sampler":0,
			"source":1
		},
		{
			"sampler":0,
			"source":2
		}
	],
	"images":[
		{
			"mimeType":"image/png",
			"name":"Image_2",
			"uri":"Image_2.png"
		},
		{
			"mimeType":"image/jpeg",
			"name":"Image_0",
			"uri":"Image_0.jpg"
		},
		{
			"mimeType":"image/png",
			"name":"Image_1",
			"uri":"Image_1.png"
		}
	],
	"accessors":[
		{
			"bufferView":0,
			"componentType":5126,
			"count":65632,
			"max":[
				8.08380126953125,
				5.384475231170654,
				-0.007809000089764595
			],
			"min":[
				-12.284788131713867,
				-4.5915961265563965,
				-19.477081298828125
			],
			"type":"VEC3"
		},
		{
			"bufferView":1,
			"componentType":5126,
			"count":65632,
			"type":"VEC3"
		},
		{
			"bufferView":2,
			"componentType":5126,
			"count":65632,
			"type":"VEC2"
		},
		{
			"bufferView":3,
			"componentType":5125,
			"count":335349,
			"type":"SCALAR"
		},
		{
			"bufferView":4,
			"componentType":5126,
			"count":65623,
			"max":[
				10.325876235961914,
				4.160910129547119,
				-0.00937699992209673
			],
			"min":[
				-12.552375793457031,
				-4.617282867431641,
				-20.645835876464844
			],
			"type":"VEC3"
		},
		{
			"bufferView":5,
			"componentType":5126,
			"count":65623,
			"type":"VEC3"
		},
		{
			"bufferView":6,
			"componentType":5126,
			"count":65623,
			"type":"VEC2"
		},
		{
			"bufferView":7,
			"componentType":5125,
			"count":321666,
			"type":"SCALAR"
		},
		{
			"bufferView":8,
			"componentType":5126,
			"count":65617,
			"max":[
				10.140381813049316,
				5.3601531982421875,
				-0.018100999295711517
			],
			"min":[
				-12.013526916503906,
				-5.192437171936035,
				-20.449060440063477
			],
			"type":"VEC3"
		},
		{
			"bufferView":9,
			"componentType":5126,
			"count":65617,
			"type":"VEC3"
		},
		{
			"bufferView":10,
			"componentType":5126,
			"count":65617,
			"type":"VEC2"
		},
		{
			"bufferView":11,
			"componentType":5125,
			"count":308406,
			"type":"SCALAR"
		},
		{
			"bufferView":12,
			"componentType":5126,
			"count":65624,
			"max":[
				10.677112579345703,
				5.358183860778809,
				-0.010449999943375587
			],
			"min":[
				-11.702177047729492,
				-5.112726211547852,
				-20.165374755859375
			],
			"type":"VEC3"
		},
		{
			"bufferView":13,
			"componentType":5126,
			"count":65624,
			"type":"VEC3"
		},
		{
			"bufferView":14,
			"componentType":5126,
			"count":65624,
			"type":"VEC2"
		},
		{
			"bufferView":15,
			"componentType":5125,
			"count":311769,
			"type":"SCALAR"
		},
		{
			"bufferView":16,
			"componentType":5126,
			"count":65619,
			"max":[
				10.653669357299805,
				4.15850305557251,
				-1.7256369590759277
			],
			"min":[
				-13.197969436645508,
				-4.445463180541992,
				-20.689186096191406
			],
			"type":"VEC3"
		},
		{
			"bufferView":17,
			"componentType":5126,
			"count":65619,
			"type":"VEC3"
		},
		{
			"bufferView":18,
			"componentType":5126,
			"count":65619,
			"type":"VEC2"
		},
		{
			"bufferView":19,
			"componentType":5125,
			"count":306618,
			"type":"SCALAR"
		},
		{
			"bufferView":20,
			"componentType":5126,
			"count":65651,
			"max":[
				10.496614456176758,
				4.3637800216674805,
				-0.024170000106096268
			],
			"min":[
				-13.549994468688965,
				-5.192437171936035,
				-20.706531524658203
			],
			"type":"VEC3"
		},
		{
			"bufferView":21,
			"componentType":5126,
			"count":65651,
			"type":"VEC3"
		},
		{
			"bufferView":22,
			"componentType":5126,
			"count":65651,
			"type":"VEC2"
		},
		{
			"bufferView":23,
			"componentType":5125,
			"count":290661,
			"type":"SCALAR"
		},
		{
			"bufferView":24,
			"componentType":5126,
			"count":65666,
			"max":[
				10.654383659362793,
				4.160824775695801,
				-0.0391400009393692
			],
			"min":[
				-13.207748413085938,
				-4.723020076751709,
				-20.616497039794922
			],
			"type":"VEC3"
		},
		{
			"bufferView":25,
			"componentType":5126,
			"count":65666,
			"type":"VEC3"
		},
		{
			"bufferView":26,
			"componentType":5126,
			"count":65666,
			"type":"VEC2"
		},
		{
			"bufferView":27,
			"componentType":5125,
			"count":271233,
			"type":"SCALAR"
		},
		{
			"bufferView":28,
			"componentType":5126,
			"count":60481,
			"max":[
				10.663290977478027,
				4.369929790496826,
				-0.008210999891161919
			],
			"min":[
				-13.467994689941406,
				-5.160390853881836,
				-20.706531524658203
			],
			"type":"VEC3"
		},
		{
			"bufferView":29,
			"componentType":5126,
			"count":60481,
			"type":"VEC3"
		},
		{
			"bufferView":30,
			"componentType":5126,
			"count":60481,
			"type":"VEC2"
		},
		{
			"bufferView":31,
			"componentType":5123,
			"count":184764,
			"type":"SCALAR"
		}
	],
	"bufferViews":[
		{
			"buffer":0,
			"byteLength":787584,
			"byteOffset":0,
			"target":34962
		},
		{
			"buffer":0,
			"byteLength":787584,
			"byteOffset":787584,
			"target":34962
		},
		{
			"buffer":0,
			"byteLength":525056,
			"byteOffset":1575168,
			"target":34962
		},
		{
			"buffer":0,
			"byteLength":1341396,
			"byteOffset":2100224,
			"target":34963
		},
		{
			"buffer":0,
			"byteLength":787476,
			"byteOffset":3441620,
			"target":34962
		},
		{
			"buffer":0,
			"byteLength":787476,
			"byteOffset":4229096,
			"target":34962
		},
		{
			"buffer":0,
			"byteLength":524984,
			"byteOffset":5016572,
			"target":34962
		},
		{
			"buffer":0,
			"byteLength":1286664,
			"byteOffset":5541556,
			"target":34963
		},
		{
			"buffer":0,
			"byteLength":787404,
			"byteOffset":6828220,
			"target":34962
		},
		{
			"buffer":0,
			"byteLength":787404,
			"byteOffset":7615624,
			"target":34962
		},
		{
			"buffer":0,
			"byteLength":524936,
			"byteOffset":8403028,
			"target":34962
		},
		{
			"buffer":0,
			"byteLength":1233624,
			"byteOffset":8927964,
			"target":34963
		},
		{
			"buffer":0,
			"byteLength":787488,
			"byteOffset":10161588,
			"target":34962
		},
		{
			"buffer":0,
			"byteLength":787488,
			"byteOffset":10949076,
			"target":34962
		},
		{
			"buffer":0,
			"byteLength":524992,
			"byteOffset":11736564,
			"target":34962
		},
		{
			"buffer":0,
			"byteLength":1247076,
			"byteOffset":12261556,
			"target":34963
		},
		{
			"buffer":0,
			"byteLength":787428,
			"byteOffset":13508632,
			"target":34962
		},
		{
			"buffer":0,
			"byteLength":787428,
			"byteOffset":14296060,
			"target":34962
		},
		{
			"buffer":0,
			"byteLength":524952,
			"byteOffset":15083488,
			"target":34962
		},
		{
			"buffer":0,
			"byteLength":1226472,
			"byteOffset":15608440,
			"target":34963
		},
		{
			"buffer":0,
			"byteLength":787812,
			"byteOffset":16834912,
			"target":34962
		},
		{
			"buffer":0,
			"byteLength":787812,
			"byteOffset":17622724,
			"target":34962
		},
		{
			"buffer":0,
			"byteLength":525208,
			"byteOffset":18410536,
			"target":34962
		},
		{
			"buffer":0,
			"byteLength":1162644,
			"byteOffset":18935744,
			"target":34963
		},
		{
			"buffer":0,
			"byteLength":787992,
			"byteOffset":20098388,
			"target":34962
		},
		{
			"buffer":0,
			"byteLength":787992,
			"byteOffset":20886380,
			"target":34962
		},
		{
			"buffer":0,
			"byteLength":525328,
			"byteOffset":21674372,
			"target":34962
		},
		{
			"buffer":0,
			"byteLength":1084932,
			"byteOffset":22199700,
			"target":34963
		},
		{
			"buffer":0,
			"byteLength":725772,
			"byteOffset":23284632,
			"target":34962
		},
		{
			"buffer":0,
			"byteLength":725772,
			"byteOffset":24010404,
			"target":34962
		},
		{
			"buffer":0,
			"byteLength":483848,
			"byteOffset":24736176,
			"target":34962
		},
		{
			"buffer":0,
			"byteLength":369528,
			"byteOffset":25220024,
			"target":34963
		}
	],
	"samplers":[
		{
			"magFilter":9729,
			"minFilter":9987
		}
	],
	"buffers":[
		{
			"byteLength":25589552,
			"uri":"kakadu-gltf-2.0_separated-valid.bin"
		}
	]
}
